{"title":"The Raven-720p MP4 AAC x264 BRRip 2012-CC","uid":7449138,"size":2380802649,"categoryP":"video","categoryS":"hd___movies","magnet":"?xt=urn:btih:d6b25505f4a4516c66bd8ad57dd2940fcec9cbeb&amp;dn=The+Raven-720p+MP4+AAC+x264+BRRip+2012-CC&amp;tr=udp%3A%2F%2Ftracker.openbittorrent.com%3A80&amp;tr=udp%3A%2F%2Fopen.demonii.com%3A1337&amp;tr=udp%3A%2F%2Ftracker.coppersurfer.tk%3A6969&amp;tr=udp%3A%2F%2Fexodus.desync.com%3A6969","seeders":0,"leechers":1,"uploader":"Caveman44","files":-1,"time":1342457377,"description":" &lt;a href=&quot;http://www.imdb.com/title/tt1486192/&quot; rel=&quot;nofollow&quot; target=&quot;_NEW&quot;&gt;http://www.imdb.com/title/tt1486192/&lt;/a&gt;\n\nSource: The.Raven.2012.720p.BluRay.x264-iNFAMOUS\n\nSubs: Brazilian, Croatian, Dutch, English, Greek, Italian, Polish, Portuguese, Romanian and Spanish.\n\nSample and Screens included.\n\nGeneral\nComplete name                    : The Raven-720p MP4 AAC x264 BRRip 2012-CC.mp4\nFormat                           : MPEG-4\nFormat profile                   : Base Media\nCodec ID                         : isom\nFile size                        : 2.19 GiB\nDuration                         : 1h 50mn\nOverall bit rate                 : 2 828 Kbps\nEncoded date                     : UTC 2012-07-15 12:34:27\n\n\nVideo\nID                               : 1\nFormat                           : AVC\nFormat/Info                      : Advanced Video Codec\nFormat profile                   : &lt;a class=&quot;__cf_email__&quot; href=&quot;/cdn-cgi/l/email-protection&quot; data-cfemail=&quot;b2fadbd5daf2fe819c83&quot;&gt;[email&amp;#160;protected]&lt;/a&gt;&lt;script cf-hash='f9e31' type=&quot;text/javascript&quot;&gt;\n/* &lt;![CDATA[ */!function(){try{var t=&quot;currentScript&quot;in document?document.currentScript:function(){for(var t=document.getElementsByTagName(&quot;script&quot;),e=t.length;e--;)if(t[e].getAttribute(&quot;cf-hash&quot;))return t[e]}();if(t&amp;&amp;t.previousSibling){var e,r,n,i,c=t.previousSibling,a=c.getAttribute(&quot;data-cfemail&quot;);if(a){for(e=&quot;&quot;,r=parseInt(a.substr(0,2),16),n=2;a.length-n;n+=2)i=parseInt(a.substr(n,2),16)^r,e+=String.fromCharCode(i);e=document.createTextNode(e),c.parentNode.replaceChild(e,c)}}}catch(u){}}();/* ]]&gt; */&lt;/script&gt;\nFormat settings, CABAC           : Yes\nFormat settings, ReFrames        : 5 frames\nCodec ID                         : avc1\nCodec ID/Info                    : Advanced Video Coding\nDuration                         : 1h 50mn\nBit rate mode                    : Variable\nBit rate                         : 2 440 Kbps\nNominal bit rate                 : 2 487 Kbps\nMaximum bit rate                 : 13.5 Mbps\nWidth                            : 1 280 pixels\nHeight                           : 528 pixels\nDisplay aspect ratio             : 2.35:1\nFrame rate mode                  : Variable\nFrame rate                       : 23.976 fps\nMinimum frame rate               : 19.048 fps\nMaximum frame rate               : 24.390 fps\nResolution                       : 24 bits\nColorimetry                      : 4:2:0\nScan type                        : Progressive\nBits/(Pixel*Frame)               : 0.151\nStream size                      : 1.89 GiB (86%)\nWriting library                  : x264 core 112\n\nAudio\nID                               : 2\nFormat                           : AAC\nFormat/Info                      : Advanced Audio Codec\nFormat version                   : Version 4\nFormat profile                   : LC\nFormat settings, SBR             : No\nCodec ID                         : 40\nDuration                         : 1h 50mn\nBit rate mode                    : Variable\nBit rate                         : 384 Kbps\nMaximum bit rate                 : 744 Kbps\nChannel(s)                       : 6 channels\nChannel positions                : Front: L C R, Rear: L R, LFE\nSampling rate                    : 48.0 KHz\nResolution                       : 16 bits\nStream size                      : 304 MiB (14%)\nLanguage                         : English\n\nEnjoy...\n\nRequested by Clair.","torrent":{"xt":"urn:btih:d6b25505f4a4516c66bd8ad57dd2940fcec9cbeb","amp;dn":"The+Raven-720p+MP4+AAC+x264+BRRip+2012-CC","amp;tr":["udp%3A%2F%2Ftracker.openbittorrent.com%3A80","udp%3A%2F%2Fopen.demonii.com%3A1337","udp%3A%2F%2Ftracker.coppersurfer.tk%3A6969","udp%3A%2F%2Fexodus.desync.com%3A6969"],"infoHash":"d6b25505f4a4516c66bd8ad57dd2940fcec9cbeb","infoHashBuffer":{"type":"Buffer","data":[214,178,85,5,244,164,81,108,102,189,138,213,125,210,148,15,206,201,203,235]},"announce":[],"urlList":[]}}